<svg xmlns="http://www.w3.org/2000/svg" xmlns:xlink="http://www.w3.org/1999/xlink" version="1.1" x="0px" y="0px" viewBox="0 0 100 125" style="enable-background:new 0 0 100 100;" xml:space="preserve"><path d="M80.8,16.6c0-1.1-0.9-2-2-2H67.7v-3.5c-0.2-0.6-0.9-1-1.6-1h-8.6c-0.9-4.3-4.1-7.4-7.9-7.4c-3.8,0-7,3.2-7.9,7.4H33  c-0.7,0-1.3,0.3-1.6,0.8v3.6H20.3c-1.1,0-2,0.9-2,2v78.2c0,1.1,0.9,2,2,2H79c0.5,0,1-0.2,1.4-0.6c0.4-0.4,0.6-0.9,0.6-1.4L80.8,16.6  z M22.3,92.9V18.6h9.2v5c0.3,0.5,0.9,0.8,1.6,0.8h33.1c0.7,0,1.4-0.4,1.6-1v-4.9h9.1L77,92.9H22.3z"/><path d="M66.5,39.9H44.8c-1.1,0-2-0.9-2-2s0.9-2,2-2h21.8c1.1,0,2,0.9,2,2S67.6,39.9,66.5,39.9z"/><path d="M66.5,53.3H44.8c-1.1,0-2-0.9-2-2s0.9-2,2-2h21.8c1.1,0,2,0.9,2,2S67.6,53.3,66.5,53.3z"/><path d="M66.5,66.2H44.8c-1.1,0-2-0.9-2-2s0.9-2,2-2h21.8c1.1,0,2,0.9,2,2S67.6,66.2,66.5,66.2z"/><path d="M66.5,79.2H44.8c-1.1,0-2-0.9-2-2s0.9-2,2-2h21.8c1.1,0,2,0.9,2,2S67.6,79.2,66.5,79.2z"/><path d="M32.9,40.6c0.3,0.3,0.6,0.4,1,0.4c0.4,0,0.7-0.1,1-0.4l4-4c0.5-0.5,0.5-1.4,0-2s-1.4-0.5-2,0l-3,3l-1.2-1.2  c-0.5-0.5-1.4-0.5-2,0c-0.3,0.3-0.4,0.6-0.4,1c0,0.4,0.1,0.7,0.4,1L32.9,40.6z"/><path d="M32.9,54.2c0.3,0.3,0.6,0.4,1,0.4c0.4,0,0.7-0.1,1-0.4l4-4c0.3-0.3,0.4-0.6,0.4-1c0-0.4-0.1-0.7-0.4-1c-0.5-0.5-1.4-0.5-2,0  l-3,3l-1.2-1.2c-0.5-0.5-1.4-0.5-2,0c-0.3,0.3-0.4,0.6-0.4,1s0.1,0.7,0.4,1L32.9,54.2z"/><path d="M36.9,61.2l-3,3L32.7,63c-0.5-0.5-1.4-0.5-2,0c-0.3,0.3-0.4,0.6-0.4,1c0,0.4,0.1,0.7,0.4,1l2.2,2.2c0.3,0.3,0.6,0.4,1,0.4  c0.4,0,0.7-0.1,1-0.4l4-4c0.5-0.5,0.5-1.4,0-2S37.4,60.7,36.9,61.2z"/><path d="M36.9,74.2l-3,3l-1.2-1.2c-0.5-0.5-1.4-0.5-2,0c-0.3,0.3-0.4,0.6-0.4,1c0,0.4,0.1,0.7,0.4,1l2.2,2.2c0.3,0.3,0.6,0.4,1,0.4  c0.4,0,0.7-0.1,1-0.4l4-4c0.5-0.5,0.5-1.4,0-2S37.4,73.7,36.9,74.2z"/><text x="0" y="115" fill="#FFFFFF" font-size="5px" font-weight="bold" font-family="'Helvetica Neue', Helvetica, Arial-Unicode, Arial, Sans-serif">Created by Aneeque Ahmed</text><text x="0" y="120" fill="white" font-size="5px" font-weight="bold" font-family="'Helvetica Neue', Helvetica, Arial-Unicode, Arial, Sans-serif">from the Noun Project</text></svg>